<?xml version="1.0" standalone="no"?><!DOCTYPE svg PUBLIC "-//W3C//DTD SVG 1.1//EN" "http://www.w3.org/Graphics/SVG/1.1/DTD/svg11.dtd"><svg t="1735959439472" class="icon" viewBox="0 0 1024 1024" version="1.1" xmlns="http://www.w3.org/2000/svg" p-id="983" xmlns:xlink="http://www.w3.org/1999/xlink" width="200" height="200"><path d="M834 697.4H404.7c-42.9 0-78-35.1-78-78V190c0-42.9 35.1-78 78-78h351.2L912 268.1v351.2c0 42.9-35.1 78.1-78 78.1z" fill="#ED7112" p-id="984"></path><path d="M209.6 892.5h468.3c42.9 0 78-35.1 78-78V346.1c0-42.9-35.1-78-78-78H209.6c-42.9 0-78 35.1-78 78v468.3c-0.1 43 35 78.1 78 78.1z" fill="#ED7112" opacity=".4" p-id="985"></path><path d="M677.9 912H209.6c-54.6 0-97.6-42.9-97.6-97.6V346.1c0-54.6 42.9-97.6 97.6-97.6h468.3c54.6 0 97.6 42.9 97.6 97.6v468.3c-0.1 52.7-43 97.6-97.6 97.6zM209.6 287.6c-33.2 0-58.5 25.4-58.5 58.5v468.3c0 33.2 25.4 58.5 58.5 58.5h468.3c33.2 0 58.5-25.4 58.5-58.5V346.1c0-33.2-25.4-58.5-58.5-58.5H209.6z" fill="#FFFFFF" opacity=".4" p-id="986"></path><path d="M408.6 835.9c41 0 74.1-33.2 74.1-74.1s-33.2-74.1-74.1-74.1c-11.7 0-21.5 2-31.2 5.9L233 531.5H114v48.8h97.6l130.7 146.3c-5.9 9.8-7.8 21.5-7.8 33.2-0.1 42.9 33.1 76.1 74.1 76.1z m-2-111.2c19.5 0 37.1 17.6 37.1 37.1 0 21.5-17.6 37.1-37.1 37.1s-37.1-15.6-37.1-37.1c2-21.5 17.6-37.1 37.1-37.1zM209.6 873h42.9V724.7H114v48.8h95.6zM599.8 873V685.7L482.7 554.9V447.6c29.3-9.8 48.8-37.1 48.8-70.2 0-41-33.2-74.1-74.1-74.1-41 0-74.1 33.2-74.1 74.1 0 33.2 21.5 60.5 48.8 70.2v126.8l115.1 130.7v169.8l52.6-1.9zM426.1 377.4c0-21.5 17.6-37.1 37.1-37.1s37.1 17.6 37.1 37.1-17.6 37.1-37.1 37.1c-21.4-0.1-37.1-17.6-37.1-37.1zM285.7 332.5L272 344.2c-13.7-11.7-31.2-19.5-48.8-19.5-41 0-74.1 33.2-74.1 74.1s33.2 74.1 74.1 74.1c41 0 74.1-33.2 74.1-74.1 0-3.9 0-7.8-2-9.8l39-33.2v-68.3h-46.8l-1.8 45zM223.2 432c-21.5 0-37.1-17.6-37.1-37.1 0-21.5 17.6-37.1 37.1-37.1s37.1 17.6 37.1 37.1c0 21.5-17.6 37.1-37.1 37.1zM699.3 482.7h-70.2V287.6h-48.8v242h119z" fill="#FFFFFF" p-id="987"></path></svg>