<?xml version="1.0" standalone="no"?><!DOCTYPE svg PUBLIC "-//W3C//DTD SVG 1.1//EN" "http://www.w3.org/Graphics/SVG/1.1/DTD/svg11.dtd"><svg t="1735959636509" class="icon" viewBox="0 0 1024 1024" version="1.1" xmlns="http://www.w3.org/2000/svg" p-id="11770" xmlns:xlink="http://www.w3.org/1999/xlink" width="200" height="200"><path d="M66 512.2a446.2 446.2 0 1 0 892.4 0 446.2 446.2 0 1 0-892.4 0z" fill="#FFB64D" p-id="11771"></path><path d="M509.1 518.7c-27.3-16.8-53.5-30.9-86.3-33.5-40.1-3.2-80.1 8.9-116.8 23.9l-52.8 184.7c70.7-27 136-30.1 201.5 11.4l54.4-186.5c0.1 0.1 0.1 0 0 0m-70.5-71.5c33.3 4.1 59.8 18.2 81.4 31.8 17.9-61.6 35.5-123.3 53.5-184.9-25.7-16.4-52-30.5-82.8-33.6-40.5-4.8-82.7 7.3-119.8 22.5-18.1 61.8-35.8 123.7-53.6 185.5 38.2-15.1 79.9-26.4 121.3-21.3m216 130.4c-49.6 0-83.4-17.5-112.3-36.7-0.1 0.2-0.4 0.3-0.5 0.4l-53.6 185.6c68 45 144.9 44.6 218.8 13.4l52-181.4-0.5 0.1c-39.2 13.1-73.6 18.6-103.9 18.6m170.4-248c-0.1-0.1-0.3-0.2-0.4-0.3-74.7 30.3-148.2 33.5-217.5-12.6-3.2 10.9-6.1 19.2-7.9 25.6-6.1 21.2-12.2 42.4-18.4 63.6-9.4 32.5-18.8 65.1-28.2 97.6 67.8 43.8 144.6 46.1 218.1 13.1l54.4-187h-0.1" fill="#FFFFFF" p-id="11772"></path></svg>