<?xml version="1.0" standalone="no"?><!DOCTYPE svg PUBLIC "-//W3C//DTD SVG 1.1//EN" "http://www.w3.org/Graphics/SVG/1.1/DTD/svg11.dtd"><svg t="1735958249238" class="icon" viewBox="0 0 1298 1024" version="1.1" xmlns="http://www.w3.org/2000/svg" p-id="890" xmlns:xlink="http://www.w3.org/1999/xlink" width="253.515625" height="200"><path d="M649.28413 1012.272678a10.889656 10.889656 0 0 1-5.863661-1.582258l-626.015634-362.988548a11.355026 11.355026 0 0 1-5.863661-9.958916V391.841483a12.099618 12.099618 0 0 1 5.677514-10.238138L643.141247 12.937284a12.658062 12.658062 0 0 1 11.91347 0L1280.791129 381.603345a11.261952 11.261952 0 0 1 5.677513 10.05199v245.715325a11.4481 11.4481 0 0 1-5.770587 9.958916l-625.643338 362.988548a11.261952 11.261952 0 0 1-5.770587 1.582258z" fill="#B5D6FB" p-id="891"></path><path d="M649.28413 23.175423L1275.113616 391.934557V637.556808l-102.381385 59.195055-523.448101 303.97964-524.006544-304.072714-102.381385-59.288129V391.841483l626.387929-368.66606m0-23.175423a23.547719 23.547719 0 0 0-11.727322 3.164516L11.4481 372.295946A23.175423 23.175423 0 0 0 0 391.934557V637.556808a23.175423 23.175423 0 0 0 11.541174 20.010907l102.381386 59.288129 523.91347 303.97964a24.013089 24.013089 0 0 0 11.634248 3.164516 23.454645 23.454645 0 0 0 11.541174-3.164516L1184.459553 716.669696l102.381385-59.195055a22.803127 22.803127 0 0 0 11.634248-20.010907V392.120705a23.175423 23.175423 0 0 0-11.727322-19.824759L660.825304 3.25759A23.268497 23.268497 0 0 0 649.28413 0z" fill="#0276F7" p-id="892"></path><path d="M23.175423 391.934557l625.922559 365.873841L1275.113616 391.934557 649.28413 23.175423z" fill="#FFFFFF" p-id="893"></path><path d="M649.097982 769.349573a10.331213 10.331213 0 0 1-5.770587-1.582258l-524.006544-303.97964a11.634248 11.634248 0 0 1-4.18833-15.822578 11.541174 11.541174 0 0 1 15.822578-4.281403L649.097982 744.591892l517.863661-300.72205a11.634248 11.634248 0 0 1 15.822578 4.188329 11.820396 11.820396 0 0 1-4.281403 15.822578L655.054717 767.767315a13.588802 13.588802 0 0 1-5.956735 1.582258z" fill="#0276F7" p-id="894"></path><path d="M673.204145 251.299764a5.863661 5.863661 0 0 1 0 11.168878 21.965461 21.965461 0 0 1-13.216506 2.047628 17.777131 17.777131 0 0 1-6.04981-2.047628 8.562807 8.562807 0 0 1-3.536811-3.536811c-1.303036-2.79222 0-5.677513 3.443737-7.632067a21.313943 21.313943 0 0 1 19.35939 0zM692.842756 329.388838c16.008726 9.307399 16.1018 24.106163 0 33.413562a64.034903 64.034903 0 0 1-46.536993 4.560625L558.443919 418.832939a21.127795 21.127795 0 0 1-18.614797 0l-38.625704-22.337756c-16.008726-9.307399-16.1018-24.199237 0-33.413561l134.305762-78.089075a63.848755 63.848755 0 0 1 57.798946 0l57.985093 33.506635a5.863661 5.863661 0 0 1 0 11.075804 21.313943 21.313943 0 0 1-19.266315 0l-57.892019-33.506635a21.313943 21.313943 0 0 0-19.266316 0l-134.95728 77.902927c-5.305217 3.071442-5.305217 8.004363 0 11.168878L549.136521 401.8004l78.554444-45.606253c-7.259771-8.748955-4.746773-19.638611 7.725141-26.898383a63.383385 63.383385 0 0 1 57.42665 0.093074z m-38.346483 22.244683a21.407017 21.407017 0 0 0 18.614798 0 5.863661 5.863661 0 0 0 0-10.98273 21.779313 21.779313 0 0 0-18.614798 0c-5.119069 2.978368-5.305217 7.818215-0.46537 10.889656M827.800036 362.988548c15.915652 9.307399 16.008726 24.199237 0 33.413561L693.680422 474.677331a63.662607 63.662607 0 0 1-57.705872 0l-57.985094-33.506635a5.863661 5.863661 0 0 1 0-11.075804 21.127795 21.127795 0 0 1 19.173242 0l57.892019 33.413561a21.313943 21.313943 0 0 0 19.266316 0l134.305762-78.089075a5.863661 5.863661 0 0 0 0-11.075804l-28.94601-16.753318-78.46137 45.606254c7.445919 9.307399 4.374477 19.824759-7.725141 26.898382a63.848755 63.848755 0 0 1-57.798946 0c-15.915652-9.307399-16.008726-24.199237 0-33.506635a65.151791 65.151791 0 0 1 46.536993-4.560626l88.047992-51.190692a21.313943 21.313943 0 0 1 19.266315 0z m-172.931467 55.844391a21.127795 21.127795 0 0 0 18.614798 0 5.863661 5.863661 0 0 0 0-10.889656 21.407017 21.407017 0 0 0-18.614798 0c-5.212143 3.071442-5.305217 7.818215 0 10.98273" fill="#0276F7" p-id="895"></path><path d="M885.598982 373.971278a8.097437 8.097437 0 0 1 3.536811 3.536811c1.303036 2.699146 0 5.584439-3.443737 7.538993a20.383203 20.383203 0 0 1-13.123432 2.047628 18.614797 18.614797 0 0 1-6.142883-1.954554 9.307399 9.307399 0 0 1-3.536812-3.536811c-1.303036-2.79222 0-5.677513 3.536812-7.632067A20.290129 20.290129 0 0 1 879.549173 372.295946a16.56717 16.56717 0 0 1 6.049809 1.675332zM462.112343 373.971278c5.398291 3.071442 5.398291 8.004363 0 11.075804a20.662425 20.662425 0 0 1-13.216506 2.047628 16.56717 16.56717 0 0 1-6.049809-1.954554 9.307399 9.307399 0 0 1-3.536811-3.536811c-1.303036-2.79222 0-5.677513 3.536811-7.632067a21.127795 21.127795 0 0 1 19.266315 0zM678.043992 500.08653c1.39611 2.79222 0 5.677513-3.350664 7.632067a20.662425 20.662425 0 0 1-13.216506 2.047627 17.03254 17.03254 0 0 1-6.142883-2.047627 7.818215 7.818215 0 0 1-3.443737-3.536812c-1.303036-2.699146 0-5.584439 3.443737-7.632067a21.127795 21.127795 0 0 1 13.123432-1.954553 18.614797 18.614797 0 0 1 6.142883 1.954553 8.283585 8.283585 0 0 1 3.443738 3.536812z" fill="#0276F7" p-id="896"></path><path d="M365.594619 318.126886c-3.443738-1.954554-4.746773-4.839847-3.536811-7.538993a7.352845 7.352845 0 0 1 2.326849-2.792219l2.419924-1.39611a18.614797 18.614797 0 0 1 4.839847-1.39611 20.476277 20.476277 0 0 1 13.123432 2.047628l48.305399 27.922196 38.346483-22.244683-48.305399-27.922196c-3.443738-1.954554-4.746773-4.839847-3.536812-7.538993a7.073623 7.073623 0 0 1 2.419924-2.885294l2.32685-1.396109a22.896201 22.896201 0 0 1 4.839847-1.303036 20.848573 20.848573 0 0 1 13.123432 1.954553l48.398473 27.922196 38.346483-22.337756-48.305399-27.922196c-4.932921-2.79222-5.398291-7.166697-1.39611-10.331213l2.792219-1.582258a21.500091 21.500091 0 0 1 17.777132 0.744592l48.305399 27.922196 38.160334-22.337757-48.305399-27.922195c-5.025995-2.885294-5.305217-7.352845-0.93074-10.517361l1.954554-1.116888a21.313943 21.313943 0 0 1 18.614797 0.558444l48.305399 27.922196 9.307399-5.584439a106.290493 106.290493 0 0 1 96.238502 0l9.307399 5.584439 47.933103-27.922196a21.313943 21.313943 0 0 1 19.266315 0 5.863661 5.863661 0 0 1 0 11.168879l-47.933103 27.922195 38.53263 22.337757 48.026178-27.922196a21.313943 21.313943 0 0 1 19.266315 0 5.863661 5.863661 0 0 1 0 11.168879l-47.933103 27.922196 38.625704 22.337756 47.933103-27.922196a21.779313 21.779313 0 0 1 13.123432-2.047627 18.614797 18.614797 0 0 1 6.142883 2.047627 9.307399 9.307399 0 0 1 3.536812 3.536812c1.303036 2.79222 0 5.677513-3.443738 7.632067l-48.026177 27.922196 39.091075 22.244683 47.933103-27.922196a21.313943 21.313943 0 0 1 19.266315 0 5.863661 5.863661 0 0 1 0 11.168878l-47.933103 27.922196 9.307399 5.584439c26.61916 15.357208 26.712234 40.39411 0 55.844392l-9.307399 5.584439 48.305399 27.922196a5.863661 5.863661 0 0 1 0 11.075805 21.127795 21.127795 0 0 1-19.173241 0l-48.305399-27.922196L857.211416 446.755135l48.305399 27.922196a5.863661 5.863661 0 0 1 0 11.075805 21.034721 21.034721 0 0 1-19.266315 0l-48.305399-27.922196-38.346483 22.244683 48.305399 27.922196a5.863661 5.863661 0 0 1 0 11.168878 21.127795 21.127795 0 0 1-19.173241 0l-48.305399-27.922196-9.307398 5.584439a21.034721 21.034721 0 0 1-19.266316 0 5.863661 5.863661 0 0 1 0-11.075804l153.479004-89.257953c15.822578-9.307399 15.729504-24.199237 0-33.413561L692.377386 240.130885a63.662607 63.662607 0 0 0-57.705872 0L423.579713 362.988548c-15.822578 9.307399-15.729504 24.199237 0 33.413561l212.580985 122.485366a63.848755 63.848755 0 0 0 57.798946 0l19.173241-11.075804a20.848573 20.848573 0 0 1 19.173241 0l57.985094 33.506635c5.398291 3.071442 5.398291 8.004363 0 11.075804a21.127795 21.127795 0 0 1-19.173241 0l-48.305399-27.922196-9.307399 5.584439a106.290493 106.290493 0 0 1-96.238502 0l-9.307399-5.584439-47.933103 27.922196a21.313943 21.313943 0 0 1-19.266315 0 5.863661 5.863661 0 0 1 0-11.075804l48.026177-27.922196-39.649518-22.337757-47.933103 27.922196a21.313943 21.313943 0 0 1-19.266316 0 5.863661 5.863661 0 0 1 0-11.168878l47.933103-27.922196-38.625704-22.337757-47.933103 27.922196a21.313943 21.313943 0 0 1-19.266315 0 5.863661 5.863661 0 0 1 0-11.168879l47.933103-27.922196-38.625705-22.244682-47.933103 27.922196a21.313943 21.313943 0 0 1-19.266315 0c-5.398291-3.071442-5.398291-8.004363 0-11.075805l47.933103-27.922196-9.307399-5.584439c-26.61916-15.357208-26.805308-40.39411 0-55.844392l9.307399-5.584439z" fill="#0276F7" p-id="897"></path></svg>